<svg xmlns="http://www.w3.org/2000/svg" viewBox="0 0 240 180" width="240" height="180" role="img"><rect width="240" height="180" fill="#e0f2fe"/><path d="M120 70 C104 58 84 58 70 64 V128 C84 122 104 122 120 134 Z" fill="#ffffff" stroke="#1f2937" stroke-width="3" stroke-linejoin="round"/><path d="M120 70 C136 58 156 58 170 64 V128 C156 122 136 122 120 134 Z" fill="#ffffff" stroke="#1f2937" stroke-width="3" stroke-linejoin="round"/><line x1="120" y1="70" x2="120" y2="134" stroke="#1f2937" stroke-width="3"/><path d="M120 30 a14 14 0 0 1 9 25 c-3 3 -4 6 -4 9 h-10 c0 -3 -1 -6 -4 -9 a14 14 0 0 1 9 -25 z" fill="#fde047" stroke="#1f2937" stroke-width="3" stroke-linejoin="round"/><line x1="114" y1="68" x2="126" y2="68" stroke="#1f2937" stroke-width="3" stroke-linecap="round"/></svg>